<?xml version="1.0" encoding="utf-8"?>
<!-- Generator: Adobe Illustrator 18.1.1, SVG Export Plug-In . SVG Version: 6.00 Build 0)  -->
<svg version="1.1" id="Layer_1" xmlns="http://www.w3.org/2000/svg" xmlns:xlink="http://www.w3.org/1999/xlink" x="0px" y="0px"
	 viewBox="0 0 624.2 77" enable-background="new 0 0 624.2 77" xml:space="preserve">
<g>
	<path fill="#333333" d="M27.8,62.7c4.6,0,8.4-1.8,11.3-5.5l6,6.2c-4.8,5.4-10.4,8-16.8,8c-6.5,0-11.8-2-16-6.1
		C8.1,61.3,6,56.1,6,49.9c0-6.2,2.1-11.4,6.4-15.6c4.3-4.2,9.5-6.2,15.6-6.2c6.9,0,12.6,2.6,17.3,7.9l-5.8,6.6
		c-3-3.7-6.6-5.5-11-5.5c-3.5,0-6.5,1.2-9,3.5c-2.5,2.3-3.8,5.4-3.8,9.3s1.2,7,3.5,9.4C21.5,61.5,24.4,62.7,27.8,62.7z"/>
	<path fill="#333333" d="M98.8,65.2c-4.2,4.1-9.5,6.2-15.7,6.2c-6.2,0-11.4-2.1-15.7-6.2c-4.2-4.1-6.4-9.3-6.4-15.5
		c0-6.2,2.1-11.3,6.4-15.4c4.2-4.1,9.5-6.2,15.7-6.2c6.2,0,11.4,2.1,15.7,6.2c4.2,4.1,6.4,9.3,6.4,15.4
		C105.2,55.9,103,61.1,98.8,65.2z M95.6,49.8c0-3.7-1.2-6.9-3.6-9.6c-2.4-2.6-5.4-4-8.9-4s-6.4,1.3-8.8,4c-2.4,2.6-3.6,5.8-3.6,9.6
		c0,3.7,1.2,6.9,3.6,9.5c2.4,2.6,5.3,3.9,8.8,3.9s6.5-1.3,8.9-3.9C94.4,56.7,95.6,53.5,95.6,49.8z"/>
	<path fill="#333333" d="M162.6,44.6l-11.3,22.9h-5.6l-11.3-22.9V71h-9.4V29.1h12.7l10.8,23l10.9-23H172V71h-9.4V44.6z"/>
	<path fill="#333333" d="M231.9,44.6l-11.3,22.9H215l-11.3-22.9V71h-9.4V29.1H207l10.8,23l10.9-23h12.6V71h-9.4V44.6z"/>
	<path fill="#333333" d="M274.7,60.2c1.6,1.9,3.7,2.9,6.3,2.9c2.6,0,4.7-1,6.3-2.9c1.5-1.9,2.3-4.6,2.3-7.9V29.1h9.4v23.5
		c0,6.1-1.7,10.8-5,14c-3.4,3.3-7.7,4.9-12.9,4.9s-9.5-1.6-12.9-4.9c-3.4-3.3-5.1-7.9-5.1-14V29.1h9.4v23.2
		C272.3,55.6,273.1,58.2,274.7,60.2z"/>
	<path fill="#FFB42E" d="M350,29.1h9.4V71H350l-20-26.3V71h-9.4V29.1h8.8l20.6,27V29.1z"/>
	<path fill="#FFB42E" d="M381.6,29.1h9.4V71h-9.4V29.1z"/>
	<path fill="#FFB42E" d="M432.6,62.7c4.6,0,8.4-1.8,11.3-5.5l6,6.2c-4.8,5.4-10.4,8-16.8,8c-6.5,0-11.8-2-16-6.1
		c-4.2-4.1-6.3-9.2-6.3-15.4c0-6.2,2.1-11.4,6.4-15.6c4.3-4.2,9.5-6.2,15.6-6.2c6.9,0,12.6,2.6,17.3,7.9l-5.8,6.6
		c-3-3.7-6.6-5.5-11-5.5c-3.5,0-6.5,1.2-9,3.5c-2.5,2.3-3.8,5.4-3.8,9.3s1.2,7,3.5,9.4C426.3,61.5,429.2,62.7,432.6,62.7z"/>
	<path fill="#FFB42E" d="M503.6,65.2c-4.2,4.1-9.5,6.2-15.7,6.2c-6.2,0-11.4-2.1-15.7-6.2c-4.2-4.1-6.4-9.3-6.4-15.5
		c0-6.2,2.1-11.3,6.4-15.4c4.2-4.1,9.5-6.2,15.7-6.2c6.2,0,11.4,2.1,15.7,6.2c4.2,4.1,6.4,9.3,6.4,15.4
		C510,55.9,507.8,61.1,503.6,65.2z M500.4,49.8c0-3.7-1.2-6.9-3.6-9.6c-2.4-2.6-5.4-4-8.9-4s-6.4,1.3-8.8,4
		c-2.4,2.6-3.6,5.8-3.6,9.6c0,3.7,1.2,6.9,3.6,9.5c2.4,2.6,5.3,3.9,8.8,3.9s6.5-1.3,8.9-3.9C499.2,56.7,500.4,53.5,500.4,49.8z"/>
	<path fill="#FFB42E" d="M561.9,34.5c4,3.7,6,8.8,6,15.3c0,6.5-2,11.7-5.9,15.5c-3.9,3.8-9.8,5.7-17.8,5.7h-14.3V29.1h14.8
		C552.2,29.1,557.9,30.9,561.9,34.5z M555.1,59.5c2.3-2.2,3.5-5.3,3.5-9.4s-1.2-7.3-3.5-9.5c-2.3-2.2-5.8-3.3-10.6-3.3h-5.2v25.5
		h5.9C549.5,62.7,552.8,61.6,555.1,59.5z"/>
	<path fill="#FFB42E" d="M618.3,29.1v8.3h-20.9V46h18.8v8h-18.8v8.7h21.5V71H588V29.1H618.3z"/>
</g>
<polygon fill="#FFB42E" points="190.9,7.2 187.8,12.8 204,23 217.9,13.4 231.9,23.4 247.6,12.8 244.1,7.3 231.9,15.9 217.8,6 
	203.9,15.7 "/>
<rect x="475.5" y="36.3" display="none" fill="#9E005D" width="24.8" height="27"/>
<rect x="70.7" y="36.2" display="none" fill="#9E005D" width="24.8" height="27"/>
<circle fill="#FFC34D" cx="83.1" cy="49.7" r="6"/>
<circle fill="#E4E3E1" cx="487.8" cy="49.9" r="6"/>
</svg>
