<?xml version="1.0" encoding="utf-8"?>
<!-- Generator: Adobe Illustrator 16.0.0, SVG Export Plug-In . SVG Version: 6.00 Build 0)  -->
<!DOCTYPE svg PUBLIC "-//W3C//DTD SVG 1.1//EN" "http://www.w3.org/Graphics/SVG/1.1/DTD/svg11.dtd">
<svg version="1.1" id="Layer_1" xmlns="http://www.w3.org/2000/svg" xmlns:xlink="http://www.w3.org/1999/xlink" x="0px" y="0px"
	 width="512px" height="512px" viewBox="0 0 512 512" enable-background="new 0 0 512 512" xml:space="preserve">
<g>
	<path d="M173.061,224.32v-0.026C173.029,224.331,173.02,224.348,173.061,224.32z"/>
	<path d="M189.33,224.296v0.023C189.365,224.344,189.356,224.329,189.33,224.296z"/>
	<path d="M448.777,281.426c29.105,0,52.795-23.671,52.795-52.771c0-29.107-23.689-52.778-52.795-52.778
		c-7.766,0-15.086,1.788-21.73,4.819c0.422-4.866,0.777-9.604,1.012-14.058c0-25.525-82.902-46.218-185.204-46.218
		c-102.285,0-185.188,20.693-185.188,46.218c2.215,42.311,12.977,105.011,30.014,152.85c-42.363,9.47-76.691,25.116-76.691,50.95
		c0,63.632,208.132,65.467,231.866,65.467c23.736,0,231.884-1.835,231.884-65.467c0-25.852-34.375-41.499-76.779-50.969
		c5.764-16.199,10.851-34,15.092-52.24C422.465,275.964,434.959,281.426,448.777,281.426z M448.777,208.415
		c11.17,0,20.257,9.08,20.257,20.24c0,11.153-9.087,20.232-20.257,20.232c-11.137,0-20.193-9.08-20.193-20.232
		C428.584,217.495,437.641,208.415,448.777,208.415z M122.687,164.77c26.986-6.341,67.704-11.811,120.168-11.811
		c52.474,0,93.21,5.472,120.198,11.814c1.974,0.464,1.974,3.266,0,3.73c-26.988,6.341-67.725,11.814-120.198,11.814
		c-19.556,0-37.336-0.804-53.524-2.086v45.681l25.403,21.655c3.227,2.757,5.101,6.8,5.101,11.05v64.902
		c0,8.011-6.494,14.506-14.506,14.506h-48.268c-8.011,0-14.505-6.495-14.505-14.506v-64.902c0-4.25,1.874-8.292,5.101-11.05
		l25.404-21.607v-47.245c-19.979-2.158-36.914-5.07-50.374-8.215C120.711,168.038,120.711,165.233,122.687,164.77z M441.277,370.438
		c-11.898,12.624-83.283,32.929-198.423,32.929c-115.138,0-186.506-20.305-198.406-32.929c5.688-6.029,25.102-13.798,56.245-20.282
		c4.64,8.149,9.433,14.869,13.712,21.029c6.491,8.967,61.515,15.975,128.466,15.975c66.921,0,121.943-7.007,128.436-15.975
		c4.561-6.161,8.996-12.836,13.736-21.026C416.182,356.643,435.592,364.41,441.277,370.438z"/>
</g>
</svg>
