<?xml version="1.0" encoding="utf-8"?>
<!-- Generator: Adobe Illustrator 16.0.0, SVG Export Plug-In . SVG Version: 6.00 Build 0)  -->
<!DOCTYPE svg PUBLIC "-//W3C//DTD SVG 1.1//EN" "http://www.w3.org/Graphics/SVG/1.1/DTD/svg11.dtd">
<svg version="1.1" id="Layer_1" xmlns="http://www.w3.org/2000/svg" xmlns:xlink="http://www.w3.org/1999/xlink" x="0px" y="0px"
	 width="1304.811px" height="1437.626px" viewBox="0 0 1304.811 1437.626" enable-background="new 0 0 1304.811 1437.626"
	 xml:space="preserve">
<g>
	<path fill="#333333" d="M723.788,1148.775c152.726,0,278.896-59.773,375.178-182.617l199.21,205.85
		c-159.374,179.301-345.296,265.618-557.787,265.618c-215.808,0-391.776-66.411-531.224-202.527C69.72,1098.968,0,929.641,0,723.802
		c0-205.862,69.72-378.51,212.485-517.958C355.256,66.399,527.898,0,730.428,0c229.092,0,418.348,86.322,574.382,262.287
		L1112.237,481.42c-99.602-122.839-219.123-182.601-365.211-182.601c-116.203,0-215.812,39.835-298.812,116.205
		c-83.003,76.354-126.164,179.281-126.164,308.773c0,129.48,39.843,232.404,116.206,312.088
		C517.943,1108.926,614.225,1148.775,723.788,1148.775z"/>
	<path fill="#FFB42E" d="M750.498,519.593c110.021,0,199.209,89.194,199.209,199.209c0,110.033-89.188,199.204-199.209,199.204
		c-110.019,0-199.207-89.171-199.207-199.204C551.288,608.79,640.479,519.593,750.498,519.593z"/>
</g>
</svg>
