<?xml version="1.0" encoding="utf-8"?>
<!-- Generator: Adobe Illustrator 18.1.1, SVG Export Plug-In . SVG Version: 6.00 Build 0)  -->
<svg version="1.1" id="Layer_1" xmlns="http://www.w3.org/2000/svg" xmlns:xlink="http://www.w3.org/1999/xlink" x="0px" y="0px"
	 viewBox="256 -412.6 1304.8 1437.6" enable-background="new 256 -412.6 1304.8 1437.6" xml:space="preserve">
<g>
	<path fill="#FFFFFF" d="M979.8,736.1c152.7,0,278.9-59.8,375.2-182.6l199.2,205.9C1394.8,938.7,1208.9,1025,996.4,1025
		c-215.8,0-391.8-66.4-531.2-202.5C325.7,686.3,256,517,256,311.2c0-205.9,69.7-378.5,212.5-518
		c142.8-139.4,315.4-205.8,517.9-205.8c229.1,0,418.3,86.3,574.4,262.3L1368.2,68.8C1268.6-54,1149.1-113.8,1003-113.8
		C886.8-113.8,787.2-74,704.2,2.4c-83,76.4-126.2,179.3-126.2,308.8c0,129.5,39.8,232.4,116.2,312.1
		C773.9,696.3,870.2,736.1,979.8,736.1z"/>
	<path fill="#FFB42E" d="M1006.5,107c110,0,199.2,89.2,199.2,199.2c0,110-89.2,199.2-199.2,199.2c-110,0-199.2-89.2-199.2-199.2
		C807.3,196.2,896.5,107,1006.5,107z"/>
</g>
</svg>
